<svg xmlns="http://www.w3.org/2000/svg" data-name="Слой 1" viewBox="0 0 100 125" x="0px" y="0px"><title>arrow</title><path d="M22.51872,87.22733a12.44723,12.44723,0,0,0,12.528,8.10456c6.342-.28934,12.59933-1.22607,18.22864-4.54919A41.60025,41.60025,0,0,0,72.52424,66.687c3.62858-11.41853,1.97583-22.28191-2.16448-33.05753-2.2661-5.89787-4.71862-11.72433-7.11176-17.5729a5.71311,5.71311,0,0,0-1.71195-2.36378c0.39,2.80586.70693,5.62435,1.188,8.41452,0.639,3.70579,1.506,7.37536,2.032,11.09486,0.10279,0.72665-.90368,1.61021-1.39854,2.42139-0.58832-.48268-1.56525-0.87726-1.69815-1.46323-0.594-2.61941-.99215-5.28685-1.3783-7.949C59.397,20.11668,58.595,14.00987,57.677,7.92046a19.79089,19.79089,0,0,0-1.12086-3.522c-0.73537-2.0829.6-2.24833,1.97012-1.91347a3.81983,3.81983,0,0,1,2.16417,1.56887,117.48812,117.48812,0,0,0,17.423,22.638A12.63924,12.63924,0,0,1,79.5,28.85334c-1.95124,1.12313-3.06571.36943-4.11039-.92675a130.19,130.19,0,0,0-9.12393-10.45844c2.04826,5.12973,3.8422,10.38052,6.21056,15.35793,2.82425,5.93545,3.62318,12.24137,4.3126,18.60415C78.0079,62.681,74.28924,72.6439,67.628,81.31448,59.21256,92.26838,47.769,97.89561,33.79439,97.64205c-4.86051-.08819-8.866-2.56945-12.2752-5.8753C19.867,90.16464,20.23994,88.83121,22.51872,87.22733Z"/></svg>
